# xmcd
#
# Track frame offsets:
#	150
#	16116
#	31255
#	46063
#	65969
#	81180
#	100590
#	117677
#	131764
#	143747
#	156762
#
# Disc length: 2265 seconds
#
# Revision: 1
# Processed by: cddbd v1.5.2PL0 Copyright (c) Steve Scherf et al.
# Submitted via: audiograbber 1.83.01
#
DISCID=8f08d70b
DTITLE=Rich McCulley - Starting All Over Again
DYEAR=2010
DGENRE=Folk and Country
TTITLE0=Tell Me I´m Listening
TTITLE1=Dreams Tonight 
TTITLE2=The Last Song
TTITLE3=Who´ll Hang The Moon (song For Dj)
TTITLE4=Nowhere
TTITLE5=Not The One
TTITLE6=Waiting For The Sun
TTITLE7=Just A Few Miles To Go
TTITLE8=Falling Apart
TTITLE9=Wake Me Up
TTITLE10=Start All Over
EXTD=
EXTT0=
EXTT1=
EXTT2=
EXTT3=
EXTT4=
EXTT5=
EXTT6=
EXTT7=
EXTT8=
EXTT9=
EXTT10=
PLAYORDER=
